<svg version="1.1" xmlns="http://www.w3.org/2000/svg" xmlns:xlink="http://www.w3.org/1999/xlink" width="96.5171" height="38.80362" viewBox="0,0,96.5171,38.80362"><g transform="translate(-177.81661,-160.90249)"><g data-paper-data="{&quot;isPaintingLayer&quot;:true}" fill-rule="nonzero" stroke-linejoin="miter" stroke-miterlimit="10" stroke-dasharray="" stroke-dashoffset="0" style="mix-blend-mode: normal"><path d="M207.4375,197.78972v-35.7474h39.75v35.7474z" fill="#ff0000" stroke="#000000" stroke-width="2" stroke-linecap="butt"/><path d="M247.0625,162.95769l25.5,20l-25.5,15z" fill="#fffa00" stroke="#000000" stroke-width="2" stroke-linecap="round"/><path d="M232.3125,175.33269c0,4.48731 -2.96611,8.125 -6.625,8.125c-3.65889,0 -6.625,-3.63769 -6.625,-8.125c0,-4.48731 2.96611,-8.125 6.625,-8.125c3.65889,0 6.625,3.63769 6.625,8.125z" fill="#ffffff" stroke="#000000" stroke-width="4" stroke-linecap="butt"/><path d="M210.40909,182.01515c-0.68729,1.20275 -1.38678,1.99472 -2.08939,2.46644c-3.53952,2.37639 -7.15806,-3.37432 -9.69287,-5.67613c-1.15126,-1.04543 -3.60779,-1.00682 -5.05135,-1.7286c-2.06537,-1.03269 -3.83138,-2.76507 -5.92746,-3.65538c-1.81638,-0.77151 -8.9834,-2.99576 -8.34541,-4.90973c1.14874,-3.44623 4.52348,-2.00706 7.00595,-1.38644c2.41673,0.60418 4.7368,3.1945 7.00974,4.23083c6.43466,2.93381 6.85861,2.34137 12.20931,7.8849c0.8703,0.90166 3.03508,-0.45711 3.65032,0.61957z" fill="#ff0000" stroke="none" stroke-width="0.5" stroke-linecap="butt"/><path d="M178.81893,167.21935c0,0 11.0928,-5.09467 16.17818,-2.32256c2.73863,1.49286 10.76449,0.44338 14.39998,4.15415c5.34483,5.4555 6.96654,18.72643 6.96654,18.72643" fill="#ff0000" stroke="#000000" stroke-width="2" stroke-linecap="round"/><path d="M216.22955,187.96949c0,0 -8.83193,6.34657 -18.53186,4.08661c-0.40448,-0.09424 -0.9448,-6.33694 -1.35221,-6.43157c-0.82196,-0.19091 -4.57943,4.00786 -5.36486,3.7548c-0.65025,-0.20951 1.65331,-4.26942 1.01376,-4.49466c-0.61595,-0.21693 -4.56722,0.32487 -5.14556,0.08793c-0.49592,-0.20317 3.70675,-5.01542 3.22335,-5.21385c-0.79949,-0.32818 -5.31473,1.64455 -6.02703,1.30808c-0.46795,-0.22105 4.17041,-4.08703 3.72629,-4.29605c-0.94262,-0.44362 -4.48746,1.23834 -5.24914,0.82476c-0.56858,-0.30874 3.86185,-3.86137 3.37557,-4.12154c-0.5648,-0.30218 -3.8726,1.15239 -4.27936,0.91041c-2.98681,-1.77677 -2.79957,-6.2044 -2.79957,-6.2044" fill="#ff0000" stroke="#000000" stroke-width="2" stroke-linecap="round"/><path d="M186.09091,173.19697c0,0 11.50513,-1.62518 14.82745,0.62724c3.77197,2.55726 7.53619,15.91822 7.53619,15.91822" fill="none" stroke="#caff00" stroke-width="3" stroke-linecap="round"/><path d="M184.72727,175.56061c0,0 11.6468,-1.87438 15.12605,0.60458c3.7701,2.6862 6.69213,14.94087 6.69213,14.94087" fill="none" stroke="#00ff43" stroke-width="3" stroke-linecap="round"/><path d="M186.09091,177.10606c0,0 9.48234,-1.06867 12.42572,1.28603c3.24018,2.59215 6.21064,13.62306 6.21064,13.62306" fill="none" stroke="#00fff1" stroke-width="3" stroke-linecap="round"/><path d="M186.72727,179.37879c0,0 7.89562,-0.46996 10.30851,1.53845c2.77794,2.31227 5.41876,11.55246 5.41876,11.55246" fill="none" stroke="#0021ff" stroke-width="3" stroke-linecap="round"/><path d="M231.45455,175.56061c0,2.51039 -1.41982,4.54545 -3.17125,4.54545c-1.75143,0 -3.17125,-2.03507 -3.17125,-4.54545c0,-2.51039 1.41982,-4.54545 3.17125,-4.54545c1.75143,0 3.17125,2.03507 3.17125,4.54545z" fill="#0e118a" stroke="#000000" stroke-width="2" stroke-linecap="butt"/></g></g></svg>